<?xml version="1.0" encoding="UTF-8" standalone="no"?>
<svg
   xmlns:dc="http://purl.org/dc/elements/1.1/"
   xmlns:cc="http://creativecommons.org/ns#"
   xmlns:rdf="http://www.w3.org/1999/02/22-rdf-syntax-ns#"
   xmlns:svg="http://www.w3.org/2000/svg"
   xmlns="http://www.w3.org/2000/svg"
   xmlns:sodipodi="http://sodipodi.sourceforge.net/DTD/sodipodi-0.dtd"
   xmlns:inkscape="http://www.inkscape.org/namespaces/inkscape"
   version="1.1"
   viewBox="0 0 145.75474 18.549158"
   id="svg22"
   sodipodi:docname="poliedro_solotesto_bianco_instantpages.svg"
   width="145.75475"
   height="18.549158"
   inkscape:version="0.92.1 unknown"
   inkscape:export-filename="/home/depaulicious/Desktop/poliedro_instant3.png"
   inkscape:export-xdpi="152.7747"
   inkscape:export-ydpi="152.7747">
  <metadata
     id="metadata28">
    <rdf:RDF>
      <cc:Work
         rdf:about="">
        <dc:format>image/svg+xml</dc:format>
        <dc:type
           rdf:resource="http://purl.org/dc/dcmitype/StillImage" />
        <dc:title />
      </cc:Work>
    </rdf:RDF>
  </metadata>
  <defs
     id="defs26" />
  <sodipodi:namedview
     pagecolor="#ffffff"
     bordercolor="#666666"
     borderopacity="1"
     objecttolerance="10"
     gridtolerance="10"
     guidetolerance="10"
     inkscape:pageopacity="0"
     inkscape:pageshadow="2"
     inkscape:window-width="1366"
     inkscape:window-height="702"
     id="namedview24"
     showgrid="false"
     fit-margin-top="0"
     fit-margin-left="0"
     fit-margin-right="0"
     fit-margin-bottom="0"
     inkscape:zoom="2.7728993"
     inkscape:cx="51.021122"
     inkscape:cy="-27.904547"
     inkscape:window-x="1920"
     inkscape:window-y="601"
     inkscape:window-maximized="1"
     inkscape:current-layer="svg22" />
  <g
     transform="translate(20.018904,-59.635938)"
     id="g20"
     inkscape:export-filename="/home/depaulicious/Desktop/poliedro_instant5.png"
     inkscape:export-xdpi="559.87555"
     inkscape:export-ydpi="559.87555">
    <g
       aria-label="POLIEDRO"
       transform="matrix(0.50849,0,0,0.50849,-1.8799,-55.202)"
       id="g18"
       style="fill:#ffffff">
      <path
         d="m 7.7074,227.77 q 0,-0.4 0.25,-0.65 0.3,-0.3 0.7,-0.3 h 11.4 q 2.3,0 4.35,0.9 2.05,0.85 3.55,2.35 1.55,1.5 2.4,3.55 0.9,2 0.9,4.25 0,2.35 -0.9,4.4 -0.85,2 -2.4,3.55 -1.5,1.55 -3.55,2.45 -2,0.85 -4.3,0.85 h -7.25 v 11.75 q 0,0.4 -0.3,0.7 -0.25,0.25 -0.65,0.25 H 8.6578 q -0.4,0 -0.7,-0.25 -0.25,-0.3 -0.25,-0.7 z m 12.05,16.45 q 1.3,0 2.45,-0.5 1.15,-0.5 2,-1.35 0.9,-0.85 1.4,-2 0.5,-1.2 0.5,-2.55 0,-1.25 -0.5,-2.35 -0.5,-1.1 -1.4,-1.9 -0.85,-0.85 -2,-1.3 -1.15,-0.45 -2.45,-0.45 h -6.9 v 12.4 z"
         id="path2"
         inkscape:connector-curvature="0" />
      <path
         d="m 34.845,244.37 q 0,-3.75 1.4,-7.05 1.4,-3.3 3.8,-5.7 2.45,-2.45 5.7,-3.85 3.3,-1.45 7.05,-1.45 3.75,0 7,1.45 3.3,1.4 5.75,3.85 2.45,2.4 3.85,5.7 1.4,3.3 1.4,7.05 0,3.75 -1.4,7.05 -1.4,3.25 -3.85,5.7 -2.45,2.4 -5.75,3.8 -3.25,1.4 -7,1.4 -3.75,0 -7.05,-1.4 -3.25,-1.4 -5.7,-3.8 -2.4,-2.45 -3.8,-5.7 -1.4,-3.3 -1.4,-7.05 z m 5,0 q 0,2.7 1,5.05 1.05,2.35 2.8,4.1 1.75,1.75 4.1,2.8 2.4,1 5.05,1 2.7,0 5.05,-1 2.35,-1.05 4.1,-2.8 1.8,-1.75 2.8,-4.1 1.05,-2.35 1.05,-5.05 0,-2.65 -1.05,-5 -1,-2.4 -2.8,-4.15 -1.75,-1.8 -4.1,-2.85 -2.35,-1.05 -5.05,-1.05 -2.65,0 -5.05,1.05 -2.35,1.05 -4.1,2.85 -1.75,1.75 -2.8,4.15 -1,2.35 -1,5 z"
         id="path4"
         inkscape:connector-curvature="0" />
      <path
         d="m 77.922,227.77 q 0,-0.4 0.25,-0.65 0.3,-0.3 0.7,-0.3 h 3.3 q 0.4,0 0.65,0.3 0.3,0.25 0.3,0.65 v 29.4 h 13.55 q 0.4,0 0.65,0.3 0.3,0.25 0.3,0.65 v 2.75 q 0,0.4 -0.3,0.7 -0.25,0.25 -0.65,0.25 h -17.8 q -0.4,0 -0.7,-0.25 -0.25,-0.3 -0.25,-0.7 z"
         id="path6"
         inkscape:connector-curvature="0" />
      <path
         d="m 102.82,227.77 q 0,-0.4 0.25,-0.65 0.3,-0.3 0.7,-0.3 h 3.3 q 0.4,0 0.65,0.3 0.3,0.25 0.3,0.65 v 33.1 q 0,0.4 -0.3,0.7 -0.25,0.25 -0.65,0.25 h -3.3 q -0.4,0 -0.7,-0.25 -0.25,-0.3 -0.25,-0.7 z"
         id="path8"
         inkscape:connector-curvature="0" />
      <path
         d="m 117.77,227.77 q 0,-0.4 0.25,-0.65 0.3,-0.3 0.7,-0.3 h 20 q 0.4,0 0.65,0.3 0.3,0.25 0.3,0.65 v 2.8 q 0,0.4 -0.3,0.7 -0.25,0.25 -0.65,0.25 h -15.8 v 10.2 h 13.35 q 0.4,0 0.65,0.3 0.3,0.25 0.3,0.65 v 2.8 q 0,0.4 -0.3,0.7 -0.25,0.25 -0.65,0.25 h -13.35 v 10.75 h 15.8 q 0.4,0 0.65,0.3 0.3,0.25 0.3,0.65 v 2.75 q 0,0.4 -0.3,0.7 -0.25,0.25 -0.65,0.25 h -20 q -0.4,0 -0.7,-0.25 -0.25,-0.3 -0.25,-0.7 z"
         id="path10"
         inkscape:connector-curvature="0" />
      <path
         d="m 147.26,227.77 q 0,-0.4 0.25,-0.65 0.25,-0.3 0.65,-0.3 h 11.5 q 3.6,0 6.8,1.4 3.2,1.35 5.6,3.75 2.4,2.35 3.75,5.55 1.4,3.15 1.4,6.75 0,3.65 -1.4,6.85 -1.35,3.2 -3.75,5.6 -2.4,2.35 -5.6,3.75 -3.2,1.35 -6.8,1.35 h -11.5 q -0.4,0 -0.65,-0.25 -0.25,-0.3 -0.25,-0.7 z m 11.7,29.3 q 2.75,0 5.05,-0.95 2.35,-0.95 4.05,-2.65 1.7,-1.75 2.65,-4.05 0.95,-2.35 0.95,-5.15 0,-2.75 -0.95,-5.05 -0.95,-2.35 -2.65,-4.05 -1.7,-1.7 -4.05,-2.65 -2.3,-0.95 -5.05,-0.95 h -6.6 v 25.5 z"
         id="path12"
         inkscape:connector-curvature="0" />
      <path
         d="m 184.37,227.77 q 0,-0.4 0.25,-0.65 0.3,-0.3 0.7,-0.3 h 13.6 q 2.25,0 4.2,0.85 2,0.8 3.5,2.25 1.5,1.45 2.35,3.4 0.85,1.95 0.85,4.2 0,1.75 -0.55,3.3 -0.55,1.55 -1.55,2.85 -0.95,1.3 -2.3,2.35 -1.35,1 -3,1.65 l 6.85,12.7 q 0.25,0.5 0,1 -0.2,0.45 -0.85,0.45 h -3.9 q -0.3,0 -0.5,-0.15 -0.2,-0.15 -0.3,-0.3 l -6.65,-13.25 h -7.55 v 12.75 q 0,0.4 -0.3,0.7 -0.25,0.25 -0.65,0.25 h -3.25 q -0.4,0 -0.7,-0.25 -0.25,-0.3 -0.25,-0.7 z m 14.15,16.05 q 1.2,0 2.3,-0.45 1.15,-0.5 1.95,-1.35 0.85,-0.85 1.35,-1.95 0.5,-1.15 0.5,-2.45 0,-1.2 -0.5,-2.3 -0.5,-1.1 -1.35,-1.9 -0.8,-0.8 -1.95,-1.25 -1.1,-0.5 -2.3,-0.5 h -8.9 v 12.15 z"
         id="path14"
         inkscape:connector-curvature="0" />
      <path
         d="m 215.02,244.37 q 0,-3.75 1.4,-7.05 1.4,-3.3 3.8,-5.7 2.45,-2.45 5.7,-3.85 3.3,-1.45 7.05,-1.45 3.75,0 7,1.45 3.3,1.4 5.75,3.85 2.45,2.4 3.85,5.7 1.4,3.3 1.4,7.05 0,3.75 -1.4,7.05 -1.4,3.25 -3.85,5.7 -2.45,2.4 -5.75,3.8 -3.25,1.4 -7,1.4 -3.75,0 -7.05,-1.4 -3.25,-1.4 -5.7,-3.8 -2.4,-2.45 -3.8,-5.7 -1.4,-3.3 -1.4,-7.05 z m 5,0 q 0,2.7 1,5.05 1.05,2.35 2.8,4.1 1.75,1.75 4.1,2.8 2.4,1 5.05,1 2.7,0 5.05,-1 2.35,-1.05 4.1,-2.8 1.8,-1.75 2.8,-4.1 1.05,-2.35 1.05,-5.05 0,-2.65 -1.05,-5 -1,-2.4 -2.8,-4.15 -1.75,-1.8 -4.1,-2.85 -2.35,-1.05 -5.05,-1.05 -2.65,0 -5.05,1.05 -2.35,1.05 -4.1,2.85 -1.75,1.75 -2.8,4.15 -1,2.35 -1,5 z"
         id="path16"
         inkscape:connector-curvature="0" />
    </g>
  </g>
  <g
     id="g4526"
     transform="matrix(1.2420288,0,0,1.2420288,23.476118,-1.9611626)"
     inkscape:export-filename="/home/depaulicious/Desktop/poliedro_instant5.png"
     inkscape:export-xdpi="559.87555"
     inkscape:export-ydpi="559.87555">
    <path
       id="path8-3"
       d="m -14.917031,-0.16315048 -4.305661,1.93347098 1.556252,4.789025 h 5.49335 l 1.556708,-4.7913029 z"
       style="fill:#ffffff;stroke-width:0.04555772"
       inkscape:connector-curvature="0" />
    <path
       id="path10-6"
       d="m -12.17309,6.5593455 1.697481,5.2241055 4.1197847,3.17e-4 0.4742562,-4.380832 -2.9585188,-3.2651218 z"
       style="fill:#ffffff;stroke-width:0.04555772"
       inkscape:connector-curvature="0" />
    <path
       id="path12-7"
       d="m -10.475609,11.783451 -4.444155,3.22913 0.989968,3.047357 4.0063459,-0.83826 2.0400756,-3.554414 z"
       style="fill:#ffffff;stroke-width:0.04555772"
       inkscape:connector-curvature="0" />
    <path
       id="path14-5"
       d="m -19.36392,11.783451 1.69748,-5.2241055 -1.851465,-1.3453167 -2.540299,2.8031654 0.40592,3.7662568 z"
       style="fill:#ffffff;stroke-width:0.04555772"
       inkscape:connector-curvature="0" />
    <path
       id="path16-3"
       d="m -14.919764,15.012581 -4.444156,-3.22913 -1.851466,1.345319 1.881078,3.282434 3.707487,0.777669 z"
       style="fill:#ffffff;stroke-width:0.04555772"
       inkscape:connector-curvature="0" />
  </g>
</svg>
